# xmcd CD database file
#
# Track frame offsets:
#	150
#	18540
#	35552
#	48545
#	65000
#	84447
#	100852
#	119137
#	138247
#	157822
#	174997
#	192687
#	213210
#
# Disc length: 3100 seconds
#
# Revision: 4
# Processed by: cddbd v1.5.2PL0 Copyright (c) Steve Scherf et al.
# Submitted via: CDex 1.51
#
DISCID=b60c1a0d
DTITLE=Warren Brothers - Well-Deserved Obscurity
DYEAR=2004
DGENRE=Country
TTITLE0=Comeback
TTITLE1=Between The River And Me
TTITLE2=Change
TTITLE3=Southern Baptist Heartbreak
TTITLE4=Goodbye To Neverland
TTITLE5=Pretty
TTITLE6=Sell A Lot Of Beer
TTITLE7=Trouble
TTITLE8=Quarter To Three
TTITLE9=Little Saviour Of Brooklyn
TTITLE10=Runnin' Out Of Heroes
TTITLE11=Liquid Confidence
TTITLE12=The Lucky
EXTD=YEAR: 2004
EXTT0=
EXTT1=
EXTT2=
EXTT3=
EXTT4=
EXTT5=
EXTT6=
EXTT7=
EXTT8=
EXTT9=
EXTT10=
EXTT11=
EXTT12=
PLAYORDER=
